<?xml version="1.0" standalone="no"?>
<!DOCTYPE svg PUBLIC "-//W3C//DTD SVG 20010904//EN"
 "http://www.w3.org/TR/2001/REC-SVG-20010904/DTD/svg10.dtd">
<svg version="1.0" xmlns="http://www.w3.org/2000/svg"
 width="640.000000pt" height="480.000000pt" viewBox="0 0 640.000000 480.000000"
 preserveAspectRatio="xMidYMid meet">

<g transform="translate(0.000000,480.000000) scale(0.100000,-0.100000)"
fill="#000000" stroke="none">
<path d="M3435 3728 c-28 -14 -89 -78 -200 -209 -88 -104 -166 -198 -172 -207
-11 -15 -8 -24 14 -55 l27 -38 -22 -22 c-21 -20 -24 -21 -47 -7 -13 8 -85 68
-160 134 l-136 118 -45 -11 c-25 -6 -49 -9 -55 -6 -12 8 -455 -138 -521 -171
l-47 -24 5 -87 c3 -49 7 -107 10 -130 l5 -42 36 15 c40 17 39 18 48 -19 l7
-27 -59 0 c-63 0 -144 -20 -204 -51 l-37 -18 -4 92 c-6 120 -33 191 -99 258
-204 209 -666 177 -1069 -74 -36 -22 -79 -57 -97 -77 l-32 -36 109 -188 c59
-104 112 -192 117 -197 6 -6 27 -2 55 10 l45 19 188 -432 c103 -237 188 -432
189 -433 1 -1 83 23 182 54 186 58 269 100 260 132 -3 9 -14 54 -26 101 -12
47 -24 94 -27 105 -4 15 5 11 33 -17 64 -61 137 -91 229 -96 91 -5 149 12 249
73 32 19 60 35 62 35 2 0 4 -12 4 -27 0 -16 3 -45 7 -66 l6 -38 40 6 c44 8 57
-3 56 -45 0 -21 -11 -30 -67 -57 -118 -56 -210 -155 -226 -242 -8 -44 9 -108
41 -149 l25 -33 -22 -24 -22 -24 31 -147 c17 -81 33 -149 34 -150 9 -8 220 51
270 76 71 35 156 104 198 163 l29 40 0 -35 c0 -50 21 -352 25 -356 2 -2 70 11
152 28 152 33 213 59 213 93 0 9 1 17 3 17 1 0 20 -7 42 -15 86 -31 205 -14
288 41 l37 24 0 -44 0 -43 126 -7 c164 -10 165 -9 191 148 l18 109 149 -207
148 -207 23 21 c15 14 31 52 45 103 12 45 26 96 31 113 l10 32 83 -5 c100 -7
169 12 255 67 65 43 152 119 181 160 l20 29 -65 75 c-36 41 -65 78 -65 83 0 5
22 34 50 65 l50 56 -35 46 c-37 48 -97 93 -155 117 -59 24 -165 17 -237 -15
-35 -16 -68 -35 -74 -43 -10 -11 -18 0 -46 56 -71 148 -230 233 -486 261 -56
7 -132 8 -169 5 l-68 -7 0 90 0 90 43 7 c23 4 64 16 91 26 28 10 52 16 54 14
3 -2 0 -30 -7 -61 -6 -32 -8 -60 -5 -63 3 -3 89 -20 192 -37 167 -28 191 -30
221 -18 40 17 43 15 66 -35 l18 -41 32 20 c18 11 35 20 39 20 3 0 6 -25 6 -55
0 -53 1 -54 33 -60 17 -3 118 -21 222 -39 l191 -33 37 24 c37 23 37 24 31 76
l-6 52 63 12 c35 7 64 11 65 10 1 -1 -1 -32 -5 -69 -4 -38 -7 -68 -7 -69 1 0
64 -10 141 -22 l139 -22 11 -60 10 -60 140 -46 140 -47 40 23 c22 13 43 29 48
36 4 8 95 276 202 596 l193 583 -36 9 c-21 6 -111 28 -202 51 -169 43 -163 42
-221 12 -4 -1 -9 8 -13 22 -7 29 12 24 -265 82 l-224 46 -44 -21 -43 -21 6
-123 7 -124 -64 -6 c-44 -5 -86 -18 -131 -41 -38 -19 -68 -33 -68 -31 0 2 -16
101 -35 221 -19 121 -35 223 -35 228 0 4 -73 6 -162 4 -146 -4 -167 -7 -198
-26 -31 -20 -49 -22 -168 -22 -112 0 -139 -3 -171 -20 -36 -18 -40 -24 -46
-72 -4 -29 -9 -57 -12 -61 -3 -4 -19 3 -36 16 -64 48 -130 73 -239 89 -10 2
47 37 127 79 l145 75 -101 147 c-56 81 -106 147 -113 146 -6 0 -29 -9 -51 -21z
m94 -173 c28 -35 51 -68 51 -72 -1 -5 -66 -39 -146 -77 -108 -52 -147 -67
-156 -58 -8 8 -8 16 3 31 16 22 193 241 196 241 0 0 24 -29 52 -65z m866 -257
c3 -13 18 -112 35 -221 l30 -199 -32 -45 c-53 -78 -71 -138 -72 -233 0 -66 5
-98 23 -142 25 -63 90 -137 140 -158 25 -10 31 -18 31 -41 0 -25 -3 -29 -22
-24 -13 2 -66 12 -118 21 -52 8 -95 16 -96 17 -1 1 -15 97 -31 212 l-29 210
-28 -80 c-16 -44 -35 -95 -43 -114 l-14 -35 -68 140 c-40 81 -71 133 -74 124
-3 -8 -15 -82 -27 -165 -12 -82 -22 -150 -23 -151 -4 -3 -216 41 -220 46 -3 3
1 42 8 88 13 78 16 85 66 139 l52 57 -38 33 -38 33 32 212 c18 117 35 219 37
226 2 9 36 12 122 12 l118 0 24 -150 c13 -82 25 -148 27 -146 3 3 63 334 63
349 0 4 36 7 80 7 74 0 80 -1 85 -22z m-1844 -65 c1 -43 4 -111 8 -152 l6 -74
104 146 103 147 37 -29 c20 -16 67 -61 105 -99 l69 -70 -49 -55 c-27 -30 -91
-100 -143 -156 l-93 -101 43 -18 c24 -11 84 -34 132 -53 76 -28 93 -39 117
-74 62 -91 166 -158 263 -171 l47 -7 0 -99 0 -100 -344 176 -343 175 -7 -67
c-3 -37 -6 -119 -6 -183 l0 -117 -75 -11 c-120 -18 -113 -21 -117 57 -3 52 1
79 18 122 62 153 50 287 -34 399 -23 31 -26 47 -35 183 l-10 150 -44 -7 -43
-6 0 43 0 43 133 42 c72 23 138 42 145 42 8 1 12 -22 13 -76z m-1028 12 c118
-31 190 -84 234 -173 83 -168 -17 -394 -244 -553 l-22 -15 65 -222 c35 -122
64 -225 64 -230 0 -12 -192 -65 -200 -55 -4 4 -94 202 -200 438 -106 237 -196
433 -200 438 -4 4 -27 -4 -53 -18 l-46 -26 -71 120 c-40 66 -69 125 -66 130
11 17 125 77 206 109 67 26 171 55 240 65 66 11 240 6 293 -8z m1985 -53 c56
-21 141 -77 149 -97 3 -8 -51 -76 -131 -163 -75 -82 -136 -152 -136 -156 0
-12 56 -5 96 13 22 10 56 33 76 50 l36 31 73 -70 74 -70 -45 -40 c-58 -51
-164 -105 -237 -121 -70 -14 -190 -7 -255 16 -66 23 -140 92 -168 157 -32 74
-33 184 -1 250 46 96 135 173 234 203 63 20 178 18 235 -3z m1620 -21 c73 -16
135 -31 137 -32 1 -2 24 -105 49 -229 26 -124 49 -234 53 -245 4 -12 26 64 58
200 51 213 53 220 76 217 26 -2 212 -43 217 -47 3 -2 -327 -1015 -333 -1023
-1 -1 -38 9 -82 23 l-80 26 -7 76 c-3 42 -7 135 -7 207 -1 72 -4 165 -8 206
l-6 75 -35 -203 c-19 -112 -37 -207 -40 -212 -3 -6 -43 -3 -94 7 l-88 16 7 66
c6 58 12 71 47 109 125 136 144 354 43 486 -33 43 -33 45 -28 124 l6 80 -32 7
c-29 6 -31 10 -31 49 0 48 4 56 28 50 9 -3 77 -17 150 -33z m-241 -254 c138
-71 180 -218 104 -372 -101 -204 -359 -266 -493 -117 -97 108 -82 268 38 401
105 117 231 148 351 88z m-1958 -125 c-7 -3 -79 27 -79 33 0 3 17 20 38 39
l37 35 5 -52 c3 -29 2 -53 -1 -55z m-717 62 c63 -21 122 -74 154 -140 23 -48
26 -63 22 -123 -10 -135 -98 -264 -216 -319 -40 -18 -79 -27 -134 -30 -69 -4
-84 -2 -132 22 -91 44 -138 128 -138 247 -1 77 27 148 87 219 100 119 234 166
357 124z m648 -554 c88 -44 160 -82 160 -85 0 -3 -76 -5 -170 -5 l-170 0 0 85
c0 51 4 85 10 85 6 0 82 -36 170 -80z m937 -154 c214 -69 315 -209 251 -348
-14 -29 -30 -65 -36 -81 -7 -15 -32 -41 -57 -59 l-44 -31 49 -36 c34 -25 54
-49 66 -80 9 -24 30 -58 46 -77 l30 -34 -17 -68 c-10 -37 -21 -70 -25 -75 -3
-4 -67 76 -141 178 -171 236 -158 215 -135 229 150 89 179 253 56 316 -55 28
-77 26 -84 -7 -5 -26 -106 -662 -106 -670 0 -1 -27 -3 -61 -3 l-61 0 5 63 c2
34 14 87 25 117 31 80 29 186 -3 265 -21 51 -25 76 -25 169 l0 109 -39 -7
c-43 -7 -42 -11 -57 113 l-7 54 144 -5 c120 -5 158 -10 226 -32z m-517 -90 l0
-84 -102 -11 c-166 -19 -154 -14 -162 -74 -3 -29 -6 -69 -6 -90 0 -21 -12 -61
-27 -90 -35 -68 -44 -192 -19 -266 16 -51 19 -117 7 -161 -6 -21 -17 -27 -90
-43 -45 -10 -85 -16 -88 -13 -4 3 -16 158 -27 344 -24 381 -10 342 -113 329
l-52 -6 -17 79 -17 79 -43 -6 -42 -5 -4 46 c-2 26 -1 49 1 52 2 2 184 4 403 4
l398 0 0 -84z m-752 -155 c16 -73 15 -75 -58 -85 -56 -7 -86 -27 -77 -49 3 -9
37 -30 74 -47 80 -36 108 -61 123 -106 26 -79 -37 -173 -153 -228 -80 -37
-166 -61 -177 -49 -8 8 -30 103 -30 127 0 8 18 15 49 19 59 7 111 32 111 52 0
15 -4 18 -104 76 -68 39 -96 78 -96 132 0 70 44 123 142 173 51 26 144 54 167
51 9 -1 20 -26 29 -66z m1895 28 c47 -11 137 -72 137 -92 0 -7 -47 -66 -105
-131 -58 -65 -105 -120 -105 -122 0 -2 11 -4 24 -4 13 0 48 16 77 36 l54 36
42 -49 c24 -26 43 -53 43 -59 0 -14 -46 -56 -97 -88 -148 -91 -321 -64 -391
63 -33 57 -34 157 -3 226 38 86 121 157 211 181 57 16 63 16 113 3z m-1014
-117 c157 -97 129 -369 -48 -466 -72 -39 -144 -45 -206 -17 -65 29 -83 46
-111 106 -29 61 -32 149 -7 221 23 68 112 157 179 178 67 21 136 14 193 -22z
m-779 -84 l0 -31 -25 23 c-14 13 -25 27 -25 32 0 4 11 8 25 8 21 0 25 -5 25
-32z"/>
<path d="M1393 2988 c-18 -6 -33 -17 -33 -25 0 -14 90 -335 96 -342 7 -8 87
59 114 96 51 70 62 171 23 231 -29 46 -122 65 -200 40z"/>
<path d="M3287 3076 c-50 -18 -67 -34 -88 -81 -22 -48 -24 -104 -5 -148 16
-40 53 -74 65 -61 50 53 209 250 206 255 -8 12 -69 36 -105 42 -19 4 -52 0
-73 -7z"/>
<path d="M4685 2866 c-102 -44 -122 -172 -40 -245 108 -95 286 -3 261 134 -8
41 -26 56 -26 21 0 -15 -12 -34 -32 -51 -26 -22 -39 -26 -66 -21 -94 15 -113
125 -29 161 l32 14 -35 0 c-19 0 -49 -6 -65 -13z"/>
<path d="M2055 2785 c-50 -18 -92 -66 -100 -117 -9 -53 27 -125 75 -150 78
-40 175 -12 212 62 20 38 23 96 8 120 -8 13 -10 13 -10 -1 0 -29 -40 -68 -74
-75 -38 -7 -89 15 -106 45 -18 35 -11 63 26 97 38 37 31 41 -31 19z"/>
<path d="M4284 1820 c-47 -19 -93 -114 -79 -163 9 -33 27 -67 35 -67 8 0 163
185 168 201 4 11 -59 39 -85 38 -10 0 -28 -4 -39 -9z"/>
<path d="M3245 1760 c-66 -27 -93 -112 -53 -170 68 -100 219 -52 217 68 0 26
-3 40 -6 32 -26 -70 -116 -82 -148 -19 -17 32 -7 71 22 88 22 13 -1 14 -32 1z"/>
<path d="M5517 2010 c-71 -56 -25 -170 68 -170 42 0 85 50 85 98 0 79 -90 121
-153 72z m96 -2 c50 -26 61 -77 27 -121 -26 -33 -63 -41 -99 -23 -33 17 -41
34 -41 81 0 57 61 91 113 63z"/>
<path d="M5540 1935 c0 -35 4 -54 10 -50 6 3 10 15 10 27 0 14 5 18 16 14 9
-3 18 -6 20 -6 2 0 4 -6 4 -14 0 -8 4 -17 9 -21 6 -3 9 17 8 47 l-2 53 -37 3
-38 3 0 -56z m58 22 c2 -12 -3 -17 -17 -17 -15 0 -21 6 -21 21 0 25 33 22 38
-4z"/>
</g>
</svg>
